<?xml version="1.0" standalone="no"?>
<!DOCTYPE svg PUBLIC "-//W3C//DTD SVG 20010904//EN"
 "http://www.w3.org/TR/2001/REC-SVG-20010904/DTD/svg10.dtd">
<svg version="1.0" xmlns="http://www.w3.org/2000/svg"
 width="200.000000pt" height="200.000000pt" viewBox="0 0 200.000000 200.000000"
 preserveAspectRatio="xMidYMid meet">
<metadata>
Created by potrace 1.14, written by Peter Selinger 2001-2017
</metadata>
<g transform="translate(0.000000,200.000000) scale(0.100000,-0.100000)"
fill="#000000" stroke="none">
<path d="M1050 1928 c-25 -4 -60 -9 -77 -10 -18 -1 -33 -5 -33 -10 0 -5 -4 -7
-8 -4 -12 7 -132 -51 -132 -63 0 -5 4 -12 10 -16 5 -3 7 -12 3 -20 -7 -19 6
-19 31 0 24 18 46 19 46 3 0 -7 -16 -33 -35 -57 -22 -27 -33 -51 -31 -65 3
-11 5 -24 5 -28 1 -4 10 -5 22 -3 16 3 19 0 15 -11 -19 -51 -18 -63 7 -69 28
-8 37 -29 37 -97 0 -41 3 -48 20 -48 11 0 20 -4 20 -9 0 -4 11 -6 24 -4 30 6
90 -22 109 -51 15 -22 35 -24 127 -13 14 2 31 -1 38 -6 7 -6 15 -7 18 -4 9 9
95 -48 129 -85 46 -49 53 -76 51 -174 -2 -72 -8 -101 -29 -147 -14 -31 -31
-57 -37 -57 -17 0 -41 -27 -45 -51 l-4 -22 22 22 c23 21 43 29 33 12 -3 -5 0
-11 8 -14 26 -10 -1 -83 -49 -133 -28 -29 -125 -90 -125 -78 0 2 -10 -1 -22
-7 -40 -21 -182 -55 -228 -54 -25 1 -61 5 -80 9 -35 8 -135 52 -155 68 -66 52
-95 84 -136 147 -27 40 -49 82 -49 92 0 11 -4 19 -9 19 -7 0 -13 24 -37 145
-11 54 -17 204 -9 222 4 10 9 27 11 38 2 11 12 50 23 87 10 36 17 69 13 72 -3
3 0 6 5 6 6 0 10 6 9 13 -14 75 -27 95 -41 60 -3 -10 -6 -19 -6 -20 0 -2 -10
-22 -23 -45 -25 -45 -51 -126 -47 -143 1 -5 -1 -6 -5 -2 -13 12 -4 75 17 123
10 24 16 44 12 44 -3 0 0 7 7 15 7 8 9 15 4 15 -5 0 -1 5 8 11 10 5 18 16 18
24 0 7 5 15 12 17 7 3 9 12 4 23 -6 18 -9 17 -32 -10 -46 -56 -104 -187 -119
-270 -10 -52 -11 -190 -2 -235 6 -30 5 -32 -5 -15 -28 46 -28 222 0 295 5 14
10 28 11 32 11 56 15 68 24 68 6 0 8 3 4 6 -6 6 70 155 85 165 12 8 -1 39 -17
39 -7 0 -15 6 -17 12 -12 34 -149 -177 -163 -249 -2 -10 -4 -18 -5 -18 -2 0
-4 -12 -14 -60 -16 -78 -19 -108 -20 -220 -1 -107 1 -125 21 -164 13 -24 21
-46 19 -49 -3 -2 0 -9 5 -16 23 -26 98 -187 81 -175 -27 22 -40 40 -64 92 -12
26 -26 47 -30 47 -5 0 -6 6 -3 13 4 6 -1 3 -9 -7 -14 -17 -16 -18 -16 -3 0 9
-4 17 -10 17 -5 0 -10 6 -10 14 0 8 -5 27 -12 43 -6 15 -12 30 -13 33 -4 14
-26 95 -35 130 -20 77 -31 32 -16 -65 15 -96 62 -239 105 -319 17 -31 31 -60
31 -65 0 -4 -12 -13 -26 -20 -20 -9 -30 -9 -40 0 -8 6 -14 9 -14 5 0 -4 -13 0
-29 9 -26 13 -30 13 -33 0 -2 -10 -9 -5 -20 14 -13 24 -13 29 -2 24 8 -3 14 0
14 6 0 6 -5 11 -11 11 -5 0 -8 4 -5 8 7 12 -20 84 -54 145 -30 53 -31 71 -4
60 10 -4 12 0 8 11 -3 9 -14 16 -24 16 -10 0 -25 3 -34 6 -11 4 -16 0 -16 -14
0 -12 5 -24 11 -27 6 -4 8 -13 5 -21 -3 -8 -1 -14 4 -14 6 0 10 -9 10 -19 0
-11 5 -23 10 -26 6 -4 8 -11 5 -16 -4 -5 -2 -9 2 -9 7 0 27 -39 38 -72 1 -5 3
-9 5 -10 1 -2 3 -10 5 -19 1 -8 15 -41 29 -73 15 -32 25 -60 23 -63 -6 -5 -79
108 -114 177 -23 45 -29 50 -31 32 -2 -13 0 -31 4 -40 4 -9 8 -19 8 -22 3 -12
58 -118 78 -151 29 -46 99 -130 158 -187 42 -41 184 -152 194 -152 3 0 27 -13
53 -28 52 -31 161 -74 233 -93 58 -16 58 -16 105 -23 69 -11 83 -14 106 -27
23 -12 226 -21 243 -11 9 5 33 9 83 14 12 1 19 6 17 10 -3 4 6 8 20 8 13 0 32
7 40 16 9 8 16 12 16 9 0 -8 68 32 96 57 11 10 24 15 29 11 4 -5 5 -3 1 4 -4
8 -22 3 -61 -17 -30 -16 -55 -27 -55 -24 0 3 -9 0 -20 -6 -26 -14 -25 -6 3 21
22 22 155 89 176 89 6 0 11 5 11 12 0 6 3 8 6 5 4 -4 20 3 35 14 16 11 29 17
29 13 0 -3 7 -1 16 6 8 8 14 9 13 4 -4 -22 2 -23 23 -4 12 11 19 23 15 26 -6
7 50 96 65 102 4 2 8 7 8 11 0 5 21 31 47 60 39 43 49 49 62 38 14 -11 14 -10
2 6 -13 16 -12 21 7 40 12 12 22 19 22 15 0 -4 -7 -13 -15 -22 -8 -8 -11 -17
-7 -20 11 -6 75 112 108 199 23 63 24 74 24 318 l0 252 -30 63 c-37 79 -88
154 -150 222 -44 48 -100 119 -102 131 -2 7 -14 24 -28 37 -27 27 -124 92
-137 92 -4 0 -21 7 -36 15 -27 14 -86 32 -132 41 -11 2 -32 6 -47 9 -45 10
-240 12 -288 3z m64 -307 c-17 -4 -36 -11 -42 -15 -7 -4 -12 -3 -12 2 0 16 13
22 49 21 l36 -1 -31 -7z m-64 -10 c0 -5 -7 -12 -16 -15 -14 -5 -15 -4 -4 9 14
17 20 19 20 6z m393 -243 c43 -23 103 -108 76 -108 -5 0 -9 3 -9 8 0 12 -43
57 -72 76 -42 28 -38 47 5 24z m130 -167 c15 -26 24 -51 20 -55 -3 -3 1 -6 10
-6 15 0 22 -13 32 -57 2 -10 8 -31 13 -48 11 -39 9 -68 -13 -153 -18 -69 -38
-82 -28 -18 2 17 6 42 8 56 2 14 4 27 5 30 15 37 -59 266 -95 292 -6 5 -3 8 6
8 9 0 28 -22 42 -49z m365 -71 c12 -12 22 -30 22 -40 0 -11 3 -20 8 -20 21 0
14 -222 -8 -244 -6 -6 -10 -18 -10 -28 0 -10 -5 -18 -12 -18 -6 0 -9 -3 -5 -6
7 -7 -91 -207 -104 -212 -5 -2 -9 -8 -9 -13 0 -17 -53 -89 -65 -89 -15 0 -25
21 -21 43 1 9 30 61 64 116 110 177 142 267 137 395 -2 66 -18 116 -37 116 -5
0 -8 5 -8 10 0 17 25 11 48 -10z m-1443 -330 c3 -5 1 -10 -4 -10 -6 0 -11 5
-11 10 0 6 2 10 4 10 3 0 8 -4 11 -10z m16 -42 c11 -21 11 -22 -4 -9 -10 7
-17 17 -17 22 0 15 9 10 21 -13z m-66 -88 c-3 -5 1 -10 9 -10 9 0 16 -4 16 -9
0 -5 8 -12 18 -15 10 -4 27 -14 38 -24 10 -9 42 -28 71 -42 62 -30 74 -58 16
-34 -21 8 -49 20 -63 27 -33 16 -122 102 -113 110 10 10 15 8 8 -3z m293 -134
c22 -8 43 -12 46 -9 3 4 6 1 6 -5 0 -7 -13 -12 -30 -12 -16 0 -30 5 -30 11 0
5 -3 8 -7 6 -5 -3 -14 1 -21 9 -16 17 -14 17 36 0z m-430 -90 c13 -12 43 -38
65 -58 23 -21 47 -38 54 -38 7 0 17 -9 23 -20 8 -16 0 -13 -46 13 -55 32 -133
106 -167 159 -27 43 -20 45 16 3 17 -21 43 -48 55 -59z m255 42 c34 -23 64
-44 67 -47 8 -9 95 -65 95 -61 0 2 11 -2 24 -10 33 -17 131 -39 148 -33 7 3
13 1 13 -4 0 -10 168 -9 225 2 22 4 52 13 67 21 16 8 28 11 28 7 0 -5 4 -2 8
4 4 7 24 16 42 20 31 6 33 5 20 -8 -8 -8 -30 -21 -47 -28 -18 -7 -33 -17 -33
-21 0 -11 -80 -34 -121 -34 -20 -1 -42 -6 -50 -13 -20 -16 -173 -9 -237 11
-30 10 -51 20 -48 23 4 5 -61 40 -119 63 -71 28 -96 44 -114 68 -12 15 -24 32
-28 37 -5 6 -14 18 -22 28 -25 32 16 20 82 -25z m567 34 c0 -12 -82 -38 -115
-36 -57 4 -61 5 -37 14 12 5 29 7 37 4 8 -4 15 -2 15 3 0 5 12 8 28 7 15 0 36
2 47 7 26 10 25 10 25 1z m-231 -24 c8 3 12 -1 9 -9 -5 -16 -27 -19 -44 -7 -6
4 -21 10 -35 12 -13 3 -25 5 -27 5 -2 1 -1 5 3 10 3 6 20 5 43 -3 20 -7 43
-11 51 -8z m-616 -85 c30 -27 63 -55 73 -63 75 -59 101 -78 114 -83 13 -5 13
-6 0 -6 -21 -1 -90 37 -139 77 -39 33 -118 122 -107 122 3 0 30 -21 59 -47z
m1009 -301 c-8 -5 -23 -9 -35 -8 -12 1 -24 -1 -27 -5 -6 -8 -85 -20 -152 -22
-27 -1 -48 -6 -48 -11 0 -4 -6 -3 -14 3 -11 9 -15 9 -19 -1 -4 -10 -6 -10 -6
0 -1 18 8 20 184 38 27 3 51 6 52 8 1 1 19 3 40 4 25 1 33 -1 25 -6z"/>
<path d="M1831 497 c-13 -21 -12 -21 5 -5 10 10 16 20 13 22 -3 3 -11 -5 -18
-17z"/>
<path d="M1714 348 l-19 -23 23 19 c21 18 27 26 19 26 -2 0 -12 -10 -23 -22z"/>
<path d="M1607 266 c-9 -7 -17 -19 -17 -27 0 -9 8 -6 22 9 25 24 22 37 -5 18z"/>
<path d="M1551 231 c-8 -5 -9 -11 -3 -15 5 -3 15 1 22 9 14 16 3 20 -19 6z"/>
<path d="M1524 212 c5 -8 -1 -12 -16 -13 -18 -1 -19 -2 -4 -6 23 -6 43 12 25
22 -8 5 -10 4 -5 -3z"/>
</g>
</svg>
