<?xml version="1.0" encoding="UTF-8"?>
<svg width="1200pt" height="1200pt" version="1.1" viewBox="0 0 1200 1200" xmlns="http://www.w3.org/2000/svg">
 <g>
  <path d="m300 527.32c16.727 0 31.609-5.9648 48.863-12.863 20.09-8.0273 42.863-17.137 71.137-17.137s51.047 9.1094 71.137 17.137c17.258 6.8984 32.137 12.863 48.863 12.863s31.609-5.9648 48.863-12.863c20.09-8.0273 42.863-17.137 71.137-17.137s51.047 9.1094 71.137 17.137c17.258 6.8984 32.137 12.863 48.863 12.863s31.609-5.9648 48.863-12.863c20.09-8.0273 42.863-17.137 71.137-17.137s51.047 9.1094 71.137 17.137c12.098 4.8359 23.027 9.0859 34.234 11.27l44.641-193.4-165.01-0.003906v-37.535c1.0195 0.035156 2.0742 0.19141 3.1094 0.19141 51.973 0 74.594-53.258 79.285-81.422 0.37109-2.1719-0.25391-4.3906-1.6797-6.0703-1.4023-1.6914-3.5156-2.6523-5.7109-2.6523-24.406 0-42.66 5.125-56.363 12.77-6.0352-29.879-26.891-53.965-28.008-55.223-1.4023-1.6094-3.457-2.543-5.5938-2.543h-0.023437c-2.1367 0-4.1875 0.91016-5.5938 2.5195-16.152 18.168-25.402 36.695-27.77 55.273-13.738-7.7266-32.062-12.938-56.629-12.938-2.1953 0-4.3086 0.97266-5.7109 2.6523-1.4414 1.6797-2.0508 3.9102-1.6797 6.0703 4.7031 28.152 27.312 81.406 79.285 81.422h0.011719c1.0078 0 2.0625-0.14453 3.0977-0.19141v37.691h-210v-39.348c5.4492 1.1992 10.777 1.8477 15.875 1.8477 43.477 0 62.52-44.363 66.504-67.824 0.38281-2.1836-0.46875-4.4023-1.9062-6.0977-1.4023-1.7031-3.7422-2.6641-5.9648-2.6641-45.938 0-65.844 21.898-74.52 40.715v-57.012c9.4336-2.7461 17.746-7.3789 24.562-14.41 22.465-23.148 21.602-60.961 21.551-62.543-0.070312-2.2188-1.1172-4.2734-2.8203-5.6406-1.7148-1.3789-3.9727-1.9453-6.1445-1.5-47.578 9.4219-67.152 34.488-67.152 64.488v31.715c-8.6992-18.828-28.715-40.801-75.023-40.801-2.1953 0.011719-4.2969 0.98438-5.7109 2.6641-1.4023 1.7031-2.0156 3.9258-1.6445 6.0977 3.9844 23.461 23.027 67.812 66.504 67.824 5.1016 0 10.43-0.64844 15.875-1.8477v84.348l-269.57-0.003906c1.5859-52.223 7.1172-73.98 10.309-78.254 0.97266-0.99609 1.5352-2.1953 2.1719-3.3711 2.1484 0.085937 4.4531 0.43359 6.5273 0.43359 106.81 0 108.05-112.67 108.05-113.81 0-1.9922-0.79297-3.8984-2.1953-5.3047-1.4023-1.4023-3.3125-2.1953-5.3047-2.1953-47.746 0-83.102 12.742-105.02 37.883-17.426 19.98-22.211 43.078-23.258 58.477-3.1172-20.363-18.719-72.527-96.719-72.527-2.1953 0-4.3086 0.97266-5.7109 2.6523-1.4414 1.6797-2.0508 3.9102-1.6797 6.0703 4.7031 28.152 27.312 81.406 79.285 81.422h0.011719c5.1953 0 10.645-0.66016 16.188-1.7148-5.1836 10.836-11.113 34.379-12.684 90.215h-135.41l39.406 170.8c11.449 3.2539 21.91 7.4141 31.727 11.34 17.258 6.9102 32.141 12.863 48.867 12.863z"/>
  <path d="m660 527.32c-45 0-75 30-120 30s-75-30-120-30-75 30-120 30-75-30-120-30-75 30-120 30v90c45 0 75-30 120-30s75 30 120 30 75-30 120-30 75 30 120 30 75-30 120-30 75 30 120 30 75-30 120-30 75 30 120 30 75-30 120-30v-90c-45 0-75 30-120 30s-75-30-120-30-75 30-120 30-75-30-120-30z"/>
  <path d="m1003.6 922.54c-8.5664-12.516-45.551 24.301-60.73 24.301-12.145 0-47.578-24.301-97.176-24.301-72.887 0-109.32 30.875-109.32 48.602 0 17.711 36.434 48.574 109.32 48.574 49.598 0 85.031-24.289 97.176-24.289 15.18 0 52.164 36.828 60.73 24.289 6.5898-9.6133-12.156-28.836-12.156-48.574 0-19.742 18.742-38.977 12.156-48.602zm-204.69 58.094c-8.2578 0-15-6.707-15-14.988s6.7422-15 15-15c8.3047 0 15 6.7188 15 15s-6.6953 14.988-15 14.988z"/>
  <path d="m689.95 742.54c-8.5664-12.516-45.539 24.301-60.719 24.301-12.156 0-47.578-24.301-97.176-24.301-72.887 0-109.33 30.875-109.33 48.602 0 17.711 36.445 48.574 109.33 48.574 49.598 0 85.02-24.289 97.176-24.289 15.18 0 52.152 36.828 60.719 24.289 6.6016-9.6133-12.145-28.836-12.145-48.574 0-19.742 18.742-38.977 12.145-48.602zm-204.68 58.094c-8.2578 0-15-6.707-15-14.988s6.7422-15 15-15c8.3047 0 15 6.7188 15 15s-6.6836 14.988-15 14.988z"/>
  <path d="m464.95 982.54c-8.5664-12.516-45.539 24.301-60.719 24.301-12.156 0-47.578-24.301-97.176-24.301-72.887 0-109.33 30.875-109.33 48.602 0 17.711 36.445 48.574 109.33 48.574 49.598 0 85.02-24.289 97.176-24.289 15.18 0 52.152 36.828 60.719 24.289 6.6016-9.6133-12.145-28.836-12.145-48.574 0-19.742 18.742-38.977 12.145-48.602zm-204.68 58.094c-8.2578 0-15-6.707-15-14.988s6.7422-15 15-15c8.3047 0 15 6.7188 15 15s-6.6836 14.988-15 14.988z"/>
 </g>
</svg>
