<?xml version="1.0" encoding="UTF-8"?>
<svg width="700pt" height="700pt" version="1.1" viewBox="0 0 700 700" xmlns="http://www.w3.org/2000/svg">
 <path d="m577.5 122.5h-129.18l-12.664-25.328h-0.003906c-1.4531-2.9062-3.6875-5.3516-6.4531-7.0586-2.7617-1.7109-5.9492-2.6133-9.1992-2.6133h-52.5v-35c0-6.2539-3.3359-12.031-8.75-15.156s-12.086-3.125-17.5 0-8.75 8.9023-8.75 15.156v35h-52.5c-3.25 0-6.4375 0.90234-9.1992 2.6133-2.7656 1.707-5 4.1523-6.4531 7.0586l-12.668 25.328h-129.18c-6.2539 0-12.031 3.3359-15.156 8.75s-3.125 12.086 0 17.5 8.9023 8.75 15.156 8.75h37.77l-47.793 107.56c-11.172 25.426-9.6719 54.637 4.043 78.785 6.9844 12.59 17.238 23.059 29.68 30.301 12.441 7.2461 26.609 10.992 41.004 10.852 14.391 0.13672 28.555-3.6133 40.996-10.852 12.438-7.2422 22.695-17.703 29.688-30.285 13.711-24.152 15.215-53.367 4.0508-78.801l-47.801-107.56h48.363c3.25 0 6.4375-0.90234 9.1992-2.6133 2.7656-1.707 5-4.1523 6.4531-7.0586l12.668-25.328h41.68v367.5h-52.5c-6.2539 0-12.031 3.3359-15.156 8.75s-3.125 12.086 0 17.5 8.9023 8.75 15.156 8.75h140c6.2539 0 12.031-3.3359 15.156-8.75s3.125-12.086 0-17.5-8.9023-8.75-15.156-8.75h-52.5v-367.5h41.68l12.664 25.328h0.003906c1.4531 2.9062 3.6875 5.3516 6.4531 7.0586 2.7617 1.7109 5.9492 2.6133 9.1992 2.6133h48.367l-47.793 107.56h-0.003907c-11.172 25.434-9.6719 54.648 4.043 78.801 9.5078 16.734 24.641 29.551 42.707 36.172 18.066 6.6211 37.898 6.6211 55.965-0.007812 18.066-6.625 33.195-19.445 42.695-36.18 13.715-24.148 15.215-53.355 4.0508-78.785l-47.801-107.56h37.77c6.2539 0 12.031-3.3359 15.156-8.75s3.125-12.086 0-17.5-8.9023-8.75-15.156-8.75zm-350.02 204.02c-7.0195 12.766-19.754 21.375-34.215 23.129-4.0547 0.51562-8.1562 0.51562-12.211 0-14.438-1.7773-27.141-10.387-34.137-23.141-4.918-8.8398-7.1719-18.914-6.4844-29.008h93.539c0.67578 10.098-1.5781 20.176-6.4922 29.02zm-4.9922-64.02h-70.574l35.285-79.398zm330.59 64c-7.0117 12.781-19.758 21.398-34.23 23.148-4.0508 0.51562-8.1523 0.51562-12.203 0-14.426-1.7773-27.121-10.383-34.125-23.121-4.918-8.8477-7.1758-18.926-6.4961-29.027h93.535c0.68359 10.09-1.5664 20.164-6.4805 29zm-4.9922-64h-70.57l35.285-79.398z"/>
</svg>
