<?xml version="1.0" encoding="UTF-8" standalone="no"?>
<svg
   width="700pt"
   height="700pt"
   version="1.1"
   viewBox="0 0 700 700"
   id="svg601"
   sodipodi:docname="noun-basketball-4592794.svg"
   inkscape:version="1.2 (dc2aeda, 2022-05-15)"
   xmlns:inkscape="http://www.inkscape.org/namespaces/inkscape"
   xmlns:sodipodi="http://sodipodi.sourceforge.net/DTD/sodipodi-0.dtd"
   xmlns="http://www.w3.org/2000/svg"
   xmlns:svg="http://www.w3.org/2000/svg">
  <sodipodi:namedview
     id="namedview603"
     pagecolor="#ffffff"
     bordercolor="#000000"
     borderopacity="0.25"
     inkscape:showpageshadow="2"
     inkscape:pageopacity="0.0"
     inkscape:pagecheckerboard="0"
     inkscape:deskcolor="#d1d1d1"
     inkscape:document-units="pt"
     showgrid="false"
     inkscape:zoom="0.54316147"
     inkscape:cx="822.9597"
     inkscape:cy="517.34156"
     inkscape:window-width="1472"
     inkscape:window-height="638"
     inkscape:window-x="0"
     inkscape:window-y="25"
     inkscape:window-maximized="0"
     inkscape:current-layer="svg601" />
  <defs
     id="defs505">
    <symbol
       id="h"
       overflow="visible">
      <path
         d="m18.766-1.125c-0.96875 0.5-1.9805 0.875-3.0312 1.125-1.043 0.25781-2.1367 0.39062-3.2812 0.39062-3.3984 0-6.0898-0.94531-8.0781-2.8438-1.9922-1.9062-2.9844-4.4844-2.9844-7.7344 0-3.2578 0.99219-5.8359 2.9844-7.7344 1.9883-1.9062 4.6797-2.8594 8.0781-2.8594 1.1445 0 2.2383 0.13281 3.2812 0.39062 1.0508 0.25 2.0625 0.625 3.0312 1.125v4.2188c-0.98047-0.65625-1.9453-1.1406-2.8906-1.4531-0.94922-0.3125-1.9492-0.46875-3-0.46875-1.875 0-3.3516 0.60547-4.4219 1.8125-1.0742 1.1992-1.6094 2.8555-1.6094 4.9688 0 2.1055 0.53516 3.7617 1.6094 4.9688 1.0703 1.1992 2.5469 1.7969 4.4219 1.7969 1.0508 0 2.0508-0.14844 3-0.45312 0.94531-0.3125 1.9102-0.80078 2.8906-1.4688z"
         id="path442" />
    </symbol>
    <symbol
       id="c"
       overflow="visible">
      <path
         d="m13.734-11.141c-0.4375-0.19531-0.87109-0.34375-1.2969-0.4375-0.41797-0.10156-0.83984-0.15625-1.2656-0.15625-1.2617 0-2.2305 0.40625-2.9062 1.2188-0.67969 0.80469-1.0156 1.9531-1.0156 3.4531v7.0625h-4.8906v-15.312h4.8906v2.5156c0.625-1 1.3438-1.7266 2.1562-2.1875 0.82031-0.46875 1.8008-0.70312 2.9375-0.70312 0.16406 0 0.34375 0.011719 0.53125 0.03125 0.19531 0.011719 0.47656 0.039062 0.84375 0.078125z"
         id="path445" />
    </symbol>
    <symbol
       id="a"
       overflow="visible">
      <path
         d="m17.641-7.7031v1.4062h-11.453c0.125 1.1484 0.53906 2.0078 1.25 2.5781 0.70703 0.57422 1.7031 0.85938 2.9844 0.85938 1.0312 0 2.082-0.14844 3.1562-0.45312 1.082-0.3125 2.1914-0.77344 3.3281-1.3906v3.7656c-1.1562 0.4375-2.3125 0.76562-3.4688 0.98438-1.1562 0.22656-2.3125 0.34375-3.4688 0.34375-2.7734 0-4.9297-0.70312-6.4688-2.1094-1.5312-1.4062-2.2969-3.3789-2.2969-5.9219 0-2.5 0.75391-4.4609 2.2656-5.8906 1.5078-1.4375 3.582-2.1562 6.2188-2.1562 2.4062 0 4.332 0.73047 5.7812 2.1875 1.4453 1.4492 2.1719 3.3828 2.1719 5.7969zm-5.0312-1.625c0-0.92578-0.27344-1.6719-0.8125-2.2344-0.54297-0.57031-1.25-0.85938-2.125-0.85938-0.94922 0-1.7188 0.26562-2.3125 0.79688s-0.96484 1.2969-1.1094 2.2969z"
         id="path448" />
    </symbol>
    <symbol
       id="l"
       overflow="visible">
      <path
         d="m9.2188-6.8906c-1.0234 0-1.793 0.17188-2.3125 0.51562-0.51172 0.34375-0.76562 0.85547-0.76562 1.5312 0 0.625 0.20703 1.1172 0.625 1.4688 0.41406 0.34375 0.98828 0.51562 1.7188 0.51562 0.92578 0 1.7031-0.32812 2.3281-0.98438 0.63281-0.66406 0.95312-1.4922 0.95312-2.4844v-0.5625zm7.4688-1.8438v8.7344h-4.9219v-2.2656c-0.65625 0.92969-1.3984 1.6055-2.2188 2.0312-0.82422 0.41406-1.8242 0.625-3 0.625-1.5859 0-2.8711-0.45703-3.8594-1.375-0.99219-0.92578-1.4844-2.1289-1.4844-3.6094 0-1.7891 0.61328-3.1016 1.8438-3.9375 1.2383-0.84375 3.1797-1.2656 5.8281-1.2656h2.8906v-0.39062c0-0.76953-0.30859-1.332-0.92188-1.6875-0.61719-0.36328-1.5703-0.54688-2.8594-0.54688-1.0547 0-2.0312 0.10547-2.9375 0.3125-0.89844 0.21094-1.7305 0.52344-2.5 0.9375v-3.7344c1.0391-0.25 2.0859-0.44141 3.1406-0.57812 1.0625-0.13281 2.125-0.20312 3.1875-0.20312 2.7578 0 4.75 0.54688 5.9688 1.6406 1.2266 1.0859 1.8438 2.8555 1.8438 5.3125z"
         id="path451" />
    </symbol>
    <symbol
       id="b"
       overflow="visible">
      <path
         d="m7.7031-19.656v4.3438h5.0469v3.5h-5.0469v6.5c0 0.71094 0.14062 1.1875 0.42188 1.4375s0.83594 0.375 1.6719 0.375h2.5156v3.5h-4.1875c-1.9375 0-3.3125-0.39844-4.125-1.2031-0.80469-0.8125-1.2031-2.1797-1.2031-4.1094v-6.5h-2.4219v-3.5h2.4219v-4.3438z"
         id="path454" />
    </symbol>
    <symbol
       id="e"
       overflow="visible">
      <path
         d="m12.766-13.078v-8.2031h4.9219v21.281h-4.9219v-2.2188c-0.66797 0.90625-1.4062 1.5703-2.2188 1.9844s-1.7578 0.625-2.8281 0.625c-1.8867 0-3.4336-0.75-4.6406-2.25-1.2109-1.5-1.8125-3.4258-1.8125-5.7812 0-2.3633 0.60156-4.2969 1.8125-5.7969 1.207-1.5 2.7539-2.25 4.6406-2.25 1.0625 0 2 0.21484 2.8125 0.64062 0.82031 0.42969 1.5664 1.0859 2.2344 1.9688zm-3.2188 9.9219c1.0391 0 1.8359-0.37891 2.3906-1.1406 0.55078-0.76953 0.82812-1.8828 0.82812-3.3438 0-1.457-0.27734-2.5664-0.82812-3.3281-0.55469-0.76953-1.3516-1.1562-2.3906-1.1562-1.043 0-1.8398 0.38672-2.3906 1.1562-0.55469 0.76172-0.82812 1.8711-0.82812 3.3281 0 1.4609 0.27344 2.5742 0.82812 3.3438 0.55078 0.76172 1.3477 1.1406 2.3906 1.1406z"
         id="path457" />
    </symbol>
    <symbol
       id="k"
       overflow="visible">
      <path
         d="m10.5-3.1562c1.0508 0 1.8516-0.37891 2.4062-1.1406 0.55078-0.76953 0.82812-1.8828 0.82812-3.3438 0-1.457-0.27734-2.5664-0.82812-3.3281-0.55469-0.76953-1.3555-1.1562-2.4062-1.1562-1.0547 0-1.8594 0.38672-2.4219 1.1562-0.55469 0.77344-0.82812 1.8828-0.82812 3.3281 0 1.4492 0.27344 2.5586 0.82812 3.3281 0.5625 0.77344 1.3672 1.1562 2.4219 1.1562zm-3.25-9.9219c0.67578-0.88281 1.4219-1.5391 2.2344-1.9688 0.82031-0.42578 1.7656-0.64062 2.8281-0.64062 1.8945 0 3.4453 0.75 4.6562 2.25 1.207 1.5 1.8125 3.4336 1.8125 5.7969 0 2.3555-0.60547 4.2812-1.8125 5.7812-1.2109 1.5-2.7617 2.25-4.6562 2.25-1.0625 0-2.0078-0.21094-2.8281-0.625-0.8125-0.42578-1.5586-1.0859-2.2344-1.9844v2.2188h-4.8906v-21.281h4.8906z"
         id="path460" />
    </symbol>
    <symbol
       id="j"
       overflow="visible">
      <path
         d="m0.34375-15.312h4.8906l4.125 10.391 3.5-10.391h4.8906l-6.4375 16.766c-0.64844 1.6953-1.4023 2.8828-2.2656 3.5625-0.86719 0.6875-2 1.0312-3.4062 1.0312h-2.8438v-3.2188h1.5312c0.83203 0 1.4375-0.13672 1.8125-0.40625 0.38281-0.26172 0.67969-0.73047 0.89062-1.4062l0.14062-0.42188z"
         id="path463" />
    </symbol>
    <symbol
       id="i"
       overflow="visible">
      <path
         d="m14.953-3.7188h-8.2188l-1.3125 3.7188h-5.2812l7.5625-20.406h6.2656l7.5625 20.406h-5.2812zm-6.9062-3.7812h5.5781l-2.7812-8.125z"
         id="path466" />
    </symbol>
    <symbol
       id="u"
       overflow="visible">
      <path
         d="m2.3594-15.312h4.8906v15.312h-4.8906zm0-5.9688h4.8906v4h-4.8906z"
         id="path469" />
    </symbol>
    <symbol
       id="g"
       overflow="visible">
      <path
         d="m17.75-9.3281v9.3281h-4.9219v-7.1406c0-1.3203-0.03125-2.2344-0.09375-2.7344s-0.16797-0.86719-0.3125-1.1094c-0.1875-0.3125-0.44922-0.55469-0.78125-0.73438-0.32422-0.17578-0.69531-0.26562-1.1094-0.26562-1.0234 0-1.8242 0.39844-2.4062 1.1875-0.58594 0.78125-0.875 1.8711-0.875 3.2656v7.5312h-4.8906v-15.312h4.8906v2.2344c0.73828-0.88281 1.5195-1.5391 2.3438-1.9688 0.83203-0.42578 1.75-0.64062 2.75-0.64062 1.7695 0 3.1133 0.54688 4.0312 1.6406 0.91406 1.0859 1.375 2.6562 1.375 4.7188z"
         id="path472" />
    </symbol>
    <symbol
       id="d"
       overflow="visible">
      <path
         d="m9.6406-12.188c-1.0859 0-1.9141 0.39062-2.4844 1.1719-0.57422 0.78125-0.85938 1.9062-0.85938 3.375s0.28516 2.5938 0.85938 3.375c0.57031 0.77344 1.3984 1.1562 2.4844 1.1562 1.0625 0 1.875-0.38281 2.4375-1.1562 0.57031-0.78125 0.85938-1.9062 0.85938-3.375s-0.28906-2.5938-0.85938-3.375c-0.5625-0.78125-1.375-1.1719-2.4375-1.1719zm0-3.5c2.6328 0 4.6914 0.71484 6.1719 2.1406 1.4766 1.418 2.2188 3.3867 2.2188 5.9062 0 2.5117-0.74219 4.4805-2.2188 5.9062-1.4805 1.418-3.5391 2.125-6.1719 2.125-2.6484 0-4.7148-0.70703-6.2031-2.125-1.4922-1.4258-2.2344-3.3945-2.2344-5.9062 0-2.5195 0.74219-4.4883 2.2344-5.9062 1.4883-1.4258 3.5547-2.1406 6.2031-2.1406z"
         id="path475" />
    </symbol>
    <symbol
       id="t"
       overflow="visible">
      <path
         d="m9.5469-12.125c-1.043 0-1.8398 0.38672-2.3906 1.1562-0.55469 0.76172-0.82812 1.8711-0.82812 3.3281 0 1.4609 0.27344 2.5742 0.82812 3.3438 0.55078 0.76172 1.3477 1.1406 2.3906 1.1406 1.0391 0 1.8359-0.37891 2.3906-1.1406 0.55078-0.76953 0.82812-1.8828 0.82812-3.3438 0-1.457-0.27734-2.5664-0.82812-3.3281-0.55469-0.76953-1.3516-1.1562-2.3906-1.1562zm3.2188 9.9062c-0.66797 0.90625-1.4062 1.5703-2.2188 1.9844s-1.7578 0.625-2.8281 0.625c-1.8867 0-3.4336-0.75-4.6406-2.25-1.2109-1.5-1.8125-3.4258-1.8125-5.7812 0-2.3633 0.60156-4.2891 1.8125-5.7812 1.207-1.4883 2.7539-2.2344 4.6406-2.2344 1.0703 0 2.0156 0.21484 2.8281 0.64062 0.8125 0.41797 1.5508 1.0742 2.2188 1.9688v-2.2656h4.9219v21.141h-4.9219z"
         id="path478" />
    </symbol>
    <symbol
       id="f"
       overflow="visible">
      <path
         d="m2.1875-5.9688v-9.3438h4.9219v1.5312c0 0.83594-0.007813 1.875-0.015625 3.125-0.011719 1.25-0.015625 2.0859-0.015625 2.5 0 1.2422 0.03125 2.1328 0.09375 2.6719 0.070313 0.54297 0.17969 0.93359 0.32812 1.1719 0.20703 0.32422 0.47266 0.57422 0.79688 0.75 0.32031 0.16797 0.69141 0.25 1.1094 0.25 1.0195 0 1.8203-0.39062 2.4062-1.1719 0.58203-0.78125 0.875-1.8672 0.875-3.2656v-7.5625h4.8906v15.312h-4.8906v-2.2188c-0.74219 0.89844-1.5234 1.5586-2.3438 1.9844-0.82422 0.41406-1.7344 0.625-2.7344 0.625-1.7617 0-3.1055-0.53906-4.0312-1.625-0.92969-1.082-1.3906-2.6602-1.3906-4.7344z"
         id="path481" />
    </symbol>
    <symbol
       id="s"
       overflow="visible">
      <path
         d="m12.422-21.281v3.2188h-2.7031c-0.6875 0-1.1719 0.125-1.4531 0.375-0.27344 0.25-0.40625 0.6875-0.40625 1.3125v1.0625h4.1875v3.5h-4.1875v11.812h-4.8906v-11.812h-2.4375v-3.5h2.4375v-1.0625c0-1.6641 0.46094-2.8984 1.3906-3.7031 0.92578-0.80078 2.3672-1.2031 4.3281-1.2031z"
         id="path484" />
    </symbol>
    <symbol
       id="r"
       overflow="visible">
      <path
         d="m16.547-12.766c0.61328-0.94531 1.3477-1.6719 2.2031-2.1719 0.85156-0.5 1.7891-0.75 2.8125-0.75 1.7578 0 3.0977 0.54688 4.0156 1.6406 0.92578 1.0859 1.3906 2.6562 1.3906 4.7188v9.3281h-4.9219v-7.9844-0.35938c0.007813-0.13281 0.015625-0.32031 0.015625-0.5625 0-1.082-0.16406-1.8633-0.48438-2.3438-0.3125-0.48828-0.82422-0.73438-1.5312-0.73438-0.92969 0-1.6484 0.38672-2.1562 1.1562-0.51172 0.76172-0.77344 1.8672-0.78125 3.3125v7.5156h-4.9219v-7.9844c0-1.6953-0.14844-2.7852-0.4375-3.2656-0.29297-0.48828-0.8125-0.73438-1.5625-0.73438-0.9375 0-1.6641 0.38672-2.1719 1.1562-0.51172 0.76172-0.76562 1.8594-0.76562 3.2969v7.5312h-4.9219v-15.312h4.9219v2.2344c0.60156-0.86328 1.2891-1.5156 2.0625-1.9531 0.78125-0.4375 1.6406-0.65625 2.5781-0.65625 1.0625 0 2 0.25781 2.8125 0.76562 0.8125 0.51172 1.4258 1.2305 1.8438 2.1562z"
         id="path487" />
    </symbol>
    <symbol
       id="q"
       overflow="visible">
      <path
         d="m17.75-9.3281v9.3281h-4.9219v-7.1094c0-1.3438-0.03125-2.2656-0.09375-2.7656s-0.16797-0.86719-0.3125-1.1094c-0.1875-0.3125-0.44922-0.55469-0.78125-0.73438-0.32422-0.17578-0.69531-0.26562-1.1094-0.26562-1.0234 0-1.8242 0.39844-2.4062 1.1875-0.58594 0.78125-0.875 1.8711-0.875 3.2656v7.5312h-4.8906v-21.281h4.8906v8.2031c0.73828-0.88281 1.5195-1.5391 2.3438-1.9688 0.83203-0.42578 1.75-0.64062 2.75-0.64062 1.7695 0 3.1133 0.54688 4.0312 1.6406 0.91406 1.0859 1.375 2.6562 1.375 4.7188z"
         id="path490" />
    </symbol>
    <symbol
       id="p"
       overflow="visible">
      <path
         d="m2.5781-20.406h5.875l7.4219 14v-14h4.9844v20.406h-5.875l-7.4219-14v14h-4.9844z"
         id="path493" />
    </symbol>
    <symbol
       id="o"
       overflow="visible">
      <path
         d="m2.5781-20.406h8.7344c2.5938 0 4.582 0.57812 5.9688 1.7344 1.3945 1.1484 2.0938 2.7891 2.0938 4.9219 0 2.1367-0.69922 3.7812-2.0938 4.9375-1.3867 1.1562-3.375 1.7344-5.9688 1.7344h-3.4844v7.0781h-5.25zm5.25 3.8125v5.7031h2.9219c1.0195 0 1.8047-0.25 2.3594-0.75 0.5625-0.5 0.84375-1.2031 0.84375-2.1094 0-0.91406-0.28125-1.6172-0.84375-2.1094-0.55469-0.48828-1.3398-0.73438-2.3594-0.73438z"
         id="path496" />
    </symbol>
    <symbol
       id="n"
       overflow="visible">
      <path
         d="m2.3594-15.312h4.8906v15.031c0 2.0508-0.49609 3.6172-1.4844 4.7031-0.98047 1.082-2.4062 1.625-4.2812 1.625h-2.4219v-3.2188h0.85938c0.92578 0 1.5625-0.21094 1.9062-0.625 0.35156-0.41797 0.53125-1.2461 0.53125-2.4844zm0-5.9688h4.8906v4h-4.8906z"
         id="path499" />
    </symbol>
    <symbol
       id="m"
       overflow="visible">
      <path
         d="m14.719-14.828v3.9844c-0.65625-0.45703-1.3242-0.79688-2-1.0156-0.66797-0.21875-1.3594-0.32812-2.0781-0.32812-1.3672 0-2.4336 0.40234-3.2031 1.2031-0.76172 0.79297-1.1406 1.9062-1.1406 3.3438 0 1.4297 0.37891 2.543 1.1406 3.3438 0.76953 0.79297 1.8359 1.1875 3.2031 1.1875 0.75781 0 1.4844-0.10938 2.1719-0.32812 0.6875-0.22656 1.3203-0.56641 1.9062-1.0156v4c-0.76172 0.28125-1.5391 0.48828-2.3281 0.625-0.78125 0.14453-1.5742 0.21875-2.375 0.21875-2.7617 0-4.9219-0.70703-6.4844-2.125-1.5547-1.4141-2.3281-3.3828-2.3281-5.9062 0-2.5312 0.77344-4.5039 2.3281-5.9219 1.5625-1.4141 3.7227-2.125 6.4844-2.125 0.80078 0 1.5938 0.074219 2.375 0.21875 0.78125 0.13672 1.5547 0.35156 2.3281 0.64062z"
         id="path502" />
    </symbol>
  </defs>
  <path
     d="m 314.05159,433.31945 c 8.55526,0 15.88765,-5.55699 18.33426,-14.20264 3.0564,-10.49788 -3.0564,-20.99575 -12.8354,-24.08463 l -36.05414,-10.49787 c 0,0 -21.39087,-35.81816 -24.44204,-40.7597 -2.44256,-4.94098 -6.72237,-11.11377 -11.61209,-15.43886 -14.66763,-12.34998 -34.8352,-11.73463 -46.44293,0.616 -10.38825,11.73464 -28.72196,50.02081 -42.7763,80.28318 -7.94568,17.29153 -4.88939,30.87772 0.60957,41.37615 l -11.6121,63.6081 -29.94526,53.72614 c -6.1128,10.49787 -1.83299,24.08462 8.55526,29.64151 3.66598,1.85233 6.72238,3.08865 10.38825,3.08865 7.33196,0 15.27764,-4.32498 18.94318,-11.11377 l 31.16529,-56.81501 c 1.22341,-1.85233 1.83299,-4.32498 2.44257,-6.79332 l 6.1128,-32.11393 9.16484,16.05531 1.22766,69.1694 c 0,12.34999 9.77867,21.61661 21.9998,21.61661 12.22102,0 21.39088,-9.88186 21.39088,-22.23196 l -0.60957,-74.10542 c 0,-3.70467 -1.22341,-7.40933 -3.0564,-10.49788 l -28.11304,-48.78459 28.72196,-47.5528 8.55526,14.20265 c 2.44257,4.32498 6.72238,7.40933 10.99772,8.64554 l 43.39068,12.34999 c 2.44256,0.616 4.27555,0.616 5.49896,0.616 z"
     id="path507"
     style="stroke-width:1.097" />
  <path
     d="m 271.88531,333.27564 c 21.9998,7.40933 46.44293,-4.32498 53.77838,-26.55264 7.33195,-22.23196 -4.27982,-46.93303 -26.27536,-54.34589 -21.9998,-7.40933 -46.44293,4.32498 -53.77838,26.55264 -7.94568,22.23195 4.27556,46.31658 26.27536,54.34589 z"
     id="path509"
     style="stroke-width:1.097" />
  <path
     d="m 314.05159,447.52321 c -20.7765,0 -37.27744,16.67507 -37.27744,37.67082 0,20.99574 16.50094,37.67082 37.27744,37.67082 20.7765,0 37.27744,-16.67508 37.27744,-37.67082 0.60956,-21.00016 -16.50094,-37.67082 -37.27744,-37.67082 z"
     id="path511"
     style="stroke-width:1.097" />
  <path
     d="m 439.32823,107.86938 h 95.33137 v 55.57769 h -95.33137 z"
     id="path513"
     style="stroke-width:1.097" />
  <path
     d="M 613.4933,59.08037 C 578.6581,30.670661 535.27179,14 486.99446,14 438.7193,14 395.32863,30.675072 360.49561,59.08037 350.71694,67.109901 345.82799,78.844317 345.82799,91.810755 V 214.70409 c 0,14.20264 11.61209,25.93728 25.66643,25.93728 h 40.33406 l -3.05215,-25.93728 c -10.38825,-1.85234 -18.33426,-11.73464 -18.33426,-22.84842 v -4.94098 c 0,-12.97085 10.38825,-22.84841 23.22311,-22.84841 h 9.77867 V 99.838411 c 0,-4.324976 3.66597,-8.029531 7.94568,-8.029531 h 111.2212 c 4.27982,0 7.94569,3.704665 7.94569,8.029531 v 64.223459 h 9.77867 c 12.8354,0 22.60981,10.49787 22.60981,22.84841 v 4.94098 c 0,11.11378 -7.94568,20.3793 -18.33426,22.84841 l -2.44256,25.32084 h 40.33405 c 14.05434,0 25.66644,-11.73464 25.66644,-25.93729 l -0.004,-122.275774 c 0,-12.966437 -5.49897,-24.699971 -14.66435,-32.730384 z"
     id="path515"
     style="stroke-width:1.097" />
  <path
     d="m 567.04928,191.85567 v -4.94098 c 0,-3.70467 -3.0564,-6.79332 -6.72238,-6.79332 H 413.66157 c -3.66597,0 -6.72237,3.08865 -6.72237,6.79332 v 4.94098 c 0,3.70467 3.0564,6.79332 6.72237,6.79332 h 9.77867 l 12.8354,117.33534 c 0.60957,3.70467 3.66598,6.17731 6.72238,6.17731 h 0.60957 c 3.66598,-0.616 6.72238,-3.70466 6.1128,-8.02953 l -0.60957,-6.17731 h 15.88766 v 6.79332 c 0,3.70467 3.0564,6.79332 6.72238,6.79332 3.66597,0 6.72238,-3.70466 6.72238,-7.40933 v -6.79332 h 15.88765 v 6.79332 c 0,3.70467 3.0564,7.40933 6.72238,7.40933 3.66598,0 6.72238,-3.08865 6.72238,-6.79332 v -6.79332 h 15.88765 l -0.60957,6.17731 c -0.60957,3.70467 2.44257,7.40933 6.1128,8.02953 h 0.60957 c 3.66598,0 6.72238,-2.46834 6.72238,-6.17731 l 12.8354,-117.33534 h 9.77867 c 4.88088,0.616 7.93717,-2.47264 7.93717,-6.79332 z M 436.8838,199.265 h 23.83312 l 0.60957,22.23196 h -21.9998 z m 6.71802,58.66657 -2.44257,-22.84841 h 21.39088 l 0.60956,22.84841 z m 3.67023,37.05547 -2.44682,-22.85282 h 18.33426 l 0.60956,22.84841 z m 48.27516,0 h -17.11096 l -0.60957,-22.84841 h 18.33426 z m 1.22341,-37.05547 h -19.55756 l -0.60957,-22.84841 h 21.39088 z m 1.22341,-37.05106 h -22.61418 l -0.60957,-22.23196 h 23.83312 z m 28.10867,74.10543 h -17.11095 l 0.60956,-22.84841 h 18.33426 z m 4.27981,-37.05547 h -19.55756 l 0.60957,-22.84841 h 21.39088 z m 3.66598,-37.05106 h -21.9998 l 0.60957,-22.23196 h 23.83312 z"
     id="path517"
     style="stroke-width:1.097" />
  <path
     d="M 521.21637,568.56387 H 505.32871 V 338.83363 c -1.22341,0 -2.44256,0.616 -4.27981,0.616 h -1.22341 c -4.88939,0 -9.77867,-1.85234 -14.05434,-4.94099 -3.66597,3.08865 -7.94568,4.94099 -12.83539,4.94099 h -1.83299 c -1.22342,0 -2.44257,0 -4.27982,-0.616 V 568.56387 H 450.9353 c -11.61209,0 -20.7765,9.26156 -20.7765,20.99575 v 5.557 c 0,3.08865 2.44257,5.557 5.49897,5.557 l 100.8346,0.004 c 3.0564,0 5.49897,-2.46835 5.49897,-5.557 v -5.557 c 0,-11.73463 -9.16484,-21.00016 -20.7765,-21.00016 z"
     id="path519"
     style="stroke-width:1.097" />
</svg>
