<?xml version="1.0" encoding="UTF-8" standalone="no"?>
<svg
   width="700pt"
   height="700pt"
   version="1.1"
   viewBox="0 0 700 700"
   id="svg404"
   sodipodi:docname="noun-tourism-2234868.svg"
   inkscape:version="1.2 (dc2aeda, 2022-05-15)"
   xmlns:inkscape="http://www.inkscape.org/namespaces/inkscape"
   xmlns:sodipodi="http://sodipodi.sourceforge.net/DTD/sodipodi-0.dtd"
   xmlns="http://www.w3.org/2000/svg"
   xmlns:svg="http://www.w3.org/2000/svg">
  <sodipodi:namedview
     id="namedview406"
     pagecolor="#ffffff"
     bordercolor="#000000"
     borderopacity="0.25"
     inkscape:showpageshadow="2"
     inkscape:pageopacity="0.0"
     inkscape:pagecheckerboard="0"
     inkscape:deskcolor="#d1d1d1"
     inkscape:document-units="pt"
     showgrid="false"
     inkscape:zoom="0.69071661"
     inkscape:cx="863.59586"
     inkscape:cy="755.73686"
     inkscape:window-width="1455"
     inkscape:window-height="804"
     inkscape:window-x="0"
     inkscape:window-y="25"
     inkscape:window-maximized="0"
     inkscape:current-layer="svg404" />
  <defs
     id="defs306">
    <symbol
       id="h"
       overflow="visible">
      <path
         d="m14.656-0.875c-0.76172 0.39844-1.5547 0.69531-2.375 0.89062-0.8125 0.19531-1.6641 0.29688-2.5469 0.29688-2.6562 0-4.7617-0.73828-6.3125-2.2188-1.5547-1.4883-2.3281-3.5039-2.3281-6.0469 0-2.5508 0.77344-4.5664 2.3281-6.0469 1.5508-1.4883 3.6562-2.2344 6.3125-2.2344 0.88281 0 1.7344 0.10156 2.5469 0.29688 0.82031 0.19922 1.6133 0.49609 2.375 0.89062v3.2969c-0.76172-0.51953-1.5117-0.89844-2.25-1.1406-0.74219-0.23828-1.5234-0.35938-2.3438-0.35938-1.4688 0-2.625 0.46875-3.4688 1.4062-0.83594 0.9375-1.25 2.2344-1.25 3.8906 0 1.6484 0.41406 2.9375 1.25 3.875 0.84375 0.9375 2 1.4062 3.4688 1.4062 0.82031 0 1.6016-0.11719 2.3438-0.35938 0.73828-0.23828 1.4883-0.61719 2.25-1.1406z"
         id="path228" />
    </symbol>
    <symbol
       id="c"
       overflow="visible">
      <path
         d="m10.719-8.7031c-0.33594-0.15625-0.66797-0.26953-1-0.34375-0.32422-0.082031-0.65625-0.125-1-0.125-0.98047 0-1.7344 0.32031-2.2656 0.95312-0.53125 0.625-0.79688 1.5273-0.79688 2.7031v5.5156h-3.8125v-11.969h3.8125v1.9688c0.48828-0.78125 1.0508-1.3477 1.6875-1.7031 0.64453-0.36328 1.4102-0.54688 2.2969-0.54688 0.13281 0 0.27344 0.007812 0.42188 0.015625 0.14453 0.011719 0.36328 0.03125 0.65625 0.0625z"
         id="path231" />
    </symbol>
    <symbol
       id="a"
       overflow="visible">
      <path
         d="m13.781-6.0156v1.0938h-8.9375c0.09375 0.89844 0.41406 1.5703 0.96875 2.0156 0.55078 0.44922 1.3281 0.67188 2.3281 0.67188 0.80078 0 1.625-0.11719 2.4688-0.35938 0.84375-0.23828 1.7109-0.59766 2.6094-1.0781v2.9531c-0.90625 0.33594-1.8125 0.58984-2.7188 0.76562s-1.8125 0.26562-2.7188 0.26562c-2.1562 0-3.8398-0.54688-5.0469-1.6406-1.1992-1.1016-1.7969-2.6484-1.7969-4.6406 0-1.9453 0.58594-3.4766 1.7656-4.5938 1.1758-1.125 2.8008-1.6875 4.875-1.6875 1.875 0 3.375 0.57031 4.5 1.7031 1.1328 1.125 1.7031 2.6367 1.7031 4.5312zm-3.9375-1.2656c0-0.72656-0.21484-1.3125-0.64062-1.75-0.41797-0.44531-0.96875-0.67188-1.6562-0.67188-0.74219 0-1.3438 0.21094-1.8125 0.625-0.46094 0.41797-0.74609 1.0156-0.85938 1.7969z"
         id="path234" />
    </symbol>
    <symbol
       id="m"
       overflow="visible">
      <path
         d="m7.2031-5.3906c-0.80469 0-1.4062 0.13672-1.8125 0.40625-0.39844 0.27344-0.59375 0.67188-0.59375 1.2031 0 0.48047 0.16016 0.85938 0.48438 1.1406 0.32031 0.27344 0.77344 0.40625 1.3594 0.40625 0.71875 0 1.3203-0.25391 1.8125-0.76562 0.48828-0.51953 0.73438-1.1719 0.73438-1.9531v-0.4375zm5.8438-1.4375v6.8281h-3.8594v-1.7656c-0.51172 0.71875-1.0898 1.2461-1.7344 1.5781-0.63672 0.33203-1.418 0.5-2.3438 0.5-1.2422 0-2.2461-0.35938-3.0156-1.0781-0.77344-0.72656-1.1562-1.6719-1.1562-2.8281 0-1.3945 0.47656-2.4219 1.4375-3.0781 0.96875-0.65625 2.4883-0.98438 4.5625-0.98438h2.25v-0.29688c0-0.60156-0.24219-1.0469-0.71875-1.3281-0.48047-0.28125-1.2266-0.42188-2.2344-0.42188-0.8125 0-1.5742 0.085937-2.2812 0.25-0.71094 0.15625-1.3672 0.40234-1.9688 0.73438v-2.9219c0.82031-0.19531 1.6445-0.34766 2.4688-0.45312 0.82031-0.10156 1.6484-0.15625 2.4844-0.15625 2.1562 0 3.7109 0.42969 4.6719 1.2812 0.95703 0.84375 1.4375 2.2266 1.4375 4.1406z"
         id="path237" />
    </symbol>
    <symbol
       id="b"
       overflow="visible">
      <path
         d="m6.0156-15.359v3.3906h3.9375v2.7344h-3.9375v5.0781c0 0.55469 0.10938 0.92969 0.32812 1.125 0.21875 0.19922 0.65625 0.29688 1.3125 0.29688h1.9688v2.7344h-3.2812c-1.5117 0-2.5859-0.3125-3.2188-0.9375-0.625-0.63281-0.9375-1.707-0.9375-3.2188v-5.0781h-1.9062v-2.7344h1.9062v-3.3906z"
         id="path240" />
    </symbol>
    <symbol
       id="l"
       overflow="visible">
      <path
         d="m9.9688-10.219v-6.4062h3.8594v16.625h-3.8594v-1.7344c-0.52344 0.71094-1.1016 1.2305-1.7344 1.5625-0.63672 0.32031-1.3711 0.48438-2.2031 0.48438-1.4688 0-2.6797-0.58203-3.625-1.75-0.94922-1.1758-1.4219-2.6875-1.4219-4.5312s0.47266-3.3477 1.4219-4.5156c0.94531-1.1758 2.1562-1.7656 3.625-1.7656 0.83203 0 1.5664 0.16797 2.2031 0.5 0.63281 0.32422 1.2109 0.83594 1.7344 1.5312zm-2.5156 7.75c0.82031 0 1.4453-0.29688 1.875-0.89062 0.42578-0.60156 0.64062-1.4727 0.64062-2.6094 0-1.1445-0.21484-2.0156-0.64062-2.6094-0.42969-0.59375-1.0547-0.89062-1.875-0.89062-0.8125 0-1.4336 0.29688-1.8594 0.89062-0.42969 0.59375-0.64062 1.4648-0.64062 2.6094 0 1.1367 0.21094 2.0078 0.64062 2.6094 0.42578 0.59375 1.0469 0.89062 1.8594 0.89062z"
         id="path243" />
    </symbol>
    <symbol
       id="k"
       overflow="visible">
      <path
         d="m8.2031-2.4688c0.82031 0 1.4453-0.29688 1.875-0.89062 0.42578-0.60156 0.64062-1.4727 0.64062-2.6094 0-1.1445-0.21484-2.0156-0.64062-2.6094-0.42969-0.59375-1.0547-0.89062-1.875-0.89062-0.82422 0-1.4531 0.30469-1.8906 0.90625-0.4375 0.59375-0.65625 1.4609-0.65625 2.5938 0 1.1367 0.21875 2.0078 0.65625 2.6094 0.4375 0.59375 1.0664 0.89062 1.8906 0.89062zm-2.5469-7.75c0.53125-0.69531 1.1133-1.207 1.75-1.5312 0.64453-0.33203 1.3828-0.5 2.2188-0.5 1.4688 0 2.6758 0.58984 3.625 1.7656 0.94531 1.168 1.4219 2.6719 1.4219 4.5156s-0.47656 3.3555-1.4219 4.5312c-0.94922 1.168-2.1562 1.75-3.625 1.75-0.83594 0-1.5742-0.16797-2.2188-0.5-0.63672-0.33203-1.2188-0.84766-1.75-1.5469v1.7344h-3.8125v-16.625h3.8125z"
         id="path246" />
    </symbol>
    <symbol
       id="j"
       overflow="visible">
      <path
         d="m0.26562-11.969h3.8281l3.2188 8.125 2.7344-8.125h3.8125l-5.0312 13.094c-0.5 1.332-1.0898 2.2656-1.7656 2.7969-0.66797 0.53125-1.5547 0.79688-2.6562 0.79688h-2.2188v-2.5h1.2031c0.64453 0 1.1133-0.10547 1.4062-0.3125 0.30078-0.21094 0.53125-0.57812 0.6875-1.1094l0.10938-0.34375z"
         id="path249" />
    </symbol>
    <symbol
       id="i"
       overflow="visible">
      <path
         d="m0.65625-15.953h3.9375l2.75 11.594 2.7344-11.594h3.9688l2.7344 11.594 2.75-11.594h3.9062l-3.75 15.953h-4.75l-2.8906-12.125-2.8594 12.125h-4.75z"
         id="path252" />
    </symbol>
    <symbol
       id="g"
       overflow="visible">
      <path
         d="m2.0156-15.953h11.094v3.1094h-6.9844v2.9688h6.5625v3.1094h-6.5625v3.6562h7.2188v3.1094h-11.328z"
         id="path255" />
    </symbol>
    <symbol
       id="z"
       overflow="visible">
      <path
         d="m8.3906-9.7656c0.65625 0 1.1484-0.14062 1.4844-0.42188 0.33203-0.28906 0.5-0.71094 0.5-1.2656 0-0.55078-0.16797-0.97266-0.5-1.2656-0.33594-0.28906-0.82812-0.4375-1.4844-0.4375h-2.2656v3.3906zm0.14062 6.9688c0.82031 0 1.4414-0.17188 1.8594-0.51562 0.41406-0.35156 0.625-0.88281 0.625-1.5938 0-0.6875-0.21094-1.2031-0.625-1.5469-0.40625-0.34375-1.0273-0.51562-1.8594-0.51562h-2.4062v4.1719zm3.8281-5.7344c0.88281 0.25 1.5664 0.72656 2.0469 1.4219 0.48828 0.6875 0.73438 1.5312 0.73438 2.5312 0 1.543-0.52344 2.6953-1.5625 3.4531-1.043 0.75-2.625 1.125-4.75 1.125h-6.8125v-15.953h6.1719c2.207 0 3.8047 0.33984 4.7969 1.0156 1 0.66797 1.5 1.7344 1.5 3.2031 0 0.78125-0.18359 1.4492-0.54688 2-0.36719 0.54297-0.89062 0.94531-1.5781 1.2031z"
         id="path258" />
    </symbol>
    <symbol
       id="y"
       overflow="visible">
      <path
         d="m0.10938-15.953h14.688v3.1094h-5.2812v12.844h-4.1094v-12.844h-5.2969z"
         id="path261" />
    </symbol>
    <symbol
       id="x"
       overflow="visible">
      <path
         d="m2.0156-15.953h4.1094v6.0781h6.0625v-6.0781h4.1094v15.953h-4.1094v-6.7656h-6.0625v6.7656h-4.1094z"
         id="path264" />
    </symbol>
    <symbol
       id="w"
       overflow="visible">
      <path
         d="m9.2969-13.25c-1.2617 0-2.2344 0.46484-2.9219 1.3906-0.6875 0.91797-1.0312 2.2188-1.0312 3.9062 0 1.668 0.34375 2.9648 1.0312 3.8906 0.6875 0.92969 1.6602 1.3906 2.9219 1.3906 1.2578 0 2.2344-0.46094 2.9219-1.3906 0.6875-0.92578 1.0312-2.2227 1.0312-3.8906 0-1.6875-0.34375-2.9883-1.0312-3.9062-0.6875-0.92578-1.6641-1.3906-2.9219-1.3906zm0-2.9844c2.5625 0 4.5664 0.73438 6.0156 2.2031 1.457 1.4688 2.1875 3.4961 2.1875 6.0781 0 2.5742-0.73047 4.5938-2.1875 6.0625-1.4492 1.4688-3.4531 2.2031-6.0156 2.2031s-4.5742-0.73438-6.0312-2.2031c-1.4492-1.4688-2.1719-3.4883-2.1719-6.0625 0-2.582 0.72266-4.6094 2.1719-6.0781 1.457-1.4688 3.4688-2.2031 6.0312-2.2031z"
         id="path267" />
    </symbol>
    <symbol
       id="e"
       overflow="visible">
      <path
         d="m2.0156-15.953h6.8125c2.0312 0 3.5859 0.45312 4.6719 1.3594 1.0938 0.89844 1.6406 2.1797 1.6406 3.8438 0 1.6797-0.54688 2.9688-1.6406 3.875-1.0859 0.89844-2.6406 1.3438-4.6719 1.3438h-2.7031v5.5312h-4.1094zm4.1094 2.9844v4.4531h2.2656c0.80078 0 1.4141-0.19141 1.8438-0.57812 0.4375-0.38281 0.65625-0.9375 0.65625-1.6562 0-0.70703-0.21875-1.2539-0.65625-1.6406-0.42969-0.38281-1.043-0.57812-1.8438-0.57812z"
         id="path270" />
    </symbol>
    <symbol
       id="v"
       overflow="visible">
      <path
         d="m13.109-15.438v3.375c-0.875-0.39453-1.7305-0.69141-2.5625-0.89062-0.83594-0.19531-1.6211-0.29688-2.3594-0.29688-0.99219 0-1.7188 0.13672-2.1875 0.40625-0.46875 0.27344-0.70312 0.6875-0.70312 1.25 0 0.42969 0.15625 0.76172 0.46875 1 0.32031 0.24219 0.89844 0.44922 1.7344 0.625l1.75 0.34375c1.7695 0.35547 3.0312 0.89844 3.7812 1.625 0.75 0.73047 1.125 1.7617 1.125 3.0938 0 1.7617-0.52734 3.0742-1.5781 3.9375-1.043 0.85547-2.6328 1.2812-4.7656 1.2812-1.0117 0-2.0273-0.10156-3.0469-0.29688-1.0234-0.1875-2.043-0.46875-3.0625-0.84375v-3.4688c1.0195 0.53125 2.0039 0.9375 2.9531 1.2188 0.95703 0.27344 1.875 0.40625 2.75 0.40625 0.90625 0 1.5938-0.14453 2.0625-0.4375 0.47656-0.30078 0.71875-0.73438 0.71875-1.2969 0-0.48828-0.16406-0.86719-0.48438-1.1406-0.32422-0.26953-0.96875-0.51562-1.9375-0.73438l-1.5938-0.35938c-1.5938-0.33203-2.7617-0.875-3.5-1.625-0.74219-0.75-1.1094-1.7578-1.1094-3.0312 0-1.582 0.50781-2.8008 1.5312-3.6562 1.0312-0.85156 2.5078-1.2812 4.4375-1.2812 0.875 0 1.7734 0.070313 2.7031 0.20312 0.92578 0.125 1.8828 0.32422 2.875 0.59375z"
         id="path273" />
    </symbol>
    <symbol
       id="f"
       overflow="visible">
      <path
         d="m2.0156-15.953h4.1094v12.844h7.2188v3.1094h-11.328z"
         id="path276" />
    </symbol>
    <symbol
       id="u"
       overflow="visible">
      <path
         d="m9.7031-16.625v2.5156h-2.1094c-0.54297 0-0.92188 0.10156-1.1406 0.29688-0.21094 0.19922-0.3125 0.53906-0.3125 1.0156v0.82812h3.2656v2.7344h-3.2656v9.2344h-3.8281v-9.2344h-1.8906v-2.7344h1.8906v-0.82812c0-1.3008 0.36328-2.2656 1.0938-2.8906 0.72656-0.625 1.8516-0.9375 3.375-0.9375z"
         id="path279" />
    </symbol>
    <symbol
       id="d"
       overflow="visible">
      <path
         d="m7.5312-9.5156c-0.84375 0-1.4922 0.30859-1.9375 0.92188-0.44922 0.60547-0.67188 1.4805-0.67188 2.625 0 1.1484 0.22266 2.0273 0.67188 2.6406 0.44531 0.60547 1.0938 0.90625 1.9375 0.90625 0.83203 0 1.4688-0.30078 1.9062-0.90625 0.44531-0.61328 0.67188-1.4922 0.67188-2.6406 0-1.1445-0.22656-2.0195-0.67188-2.625-0.4375-0.61328-1.0742-0.92188-1.9062-0.92188zm0-2.7344c2.0508 0 3.6562 0.55859 4.8125 1.6719 1.1641 1.1055 1.75 2.6406 1.75 4.6094s-0.58594 3.5117-1.75 4.625c-1.1562 1.1055-2.7617 1.6562-4.8125 1.6562-2.0625 0-3.6797-0.55078-4.8438-1.6562-1.168-1.1133-1.75-2.6562-1.75-4.625s0.58203-3.5039 1.75-4.6094c1.1641-1.1133 2.7812-1.6719 4.8438-1.6719z"
         id="path282" />
    </symbol>
    <symbol
       id="t"
       overflow="visible">
      <path
         d="m12.922-9.9688c0.48828-0.75 1.0625-1.3164 1.7188-1.7031 0.66406-0.38281 1.3984-0.57812 2.2031-0.57812 1.375 0 2.4219 0.42969 3.1406 1.2812 0.71875 0.84375 1.0781 2.0742 1.0781 3.6875v7.2812h-3.8438v-6.2344c0.007812-0.09375 0.015625-0.1875 0.015625-0.28125v-0.4375c0-0.84375-0.125-1.457-0.375-1.8438-0.25-0.38281-0.65234-0.57812-1.2031-0.57812-0.73047 0-1.293 0.30469-1.6875 0.90625-0.38672 0.59375-0.58984 1.4609-0.60938 2.5938v5.875h-3.8438v-6.2344c0-1.3203-0.11719-2.1758-0.34375-2.5625-0.23047-0.38281-0.63672-0.57812-1.2188-0.57812-0.73047 0-1.2969 0.30469-1.7031 0.90625-0.39844 0.60547-0.59375 1.4648-0.59375 2.5781v5.8906h-3.8438v-11.969h3.8438v1.75c0.46875-0.66406 1.0039-1.1719 1.6094-1.5156 0.61328-0.34375 1.2891-0.51562 2.0312-0.51562 0.82031 0 1.5508 0.19922 2.1875 0.59375 0.63281 0.39844 1.1133 0.96094 1.4375 1.6875z"
         id="path285" />
    </symbol>
    <symbol
       id="s"
       overflow="visible">
      <path
         d="m13.859-7.2812v7.2812h-3.8438v-5.5469c0-1.0508-0.027344-1.7695-0.078125-2.1562-0.042969-0.39453-0.12109-0.6875-0.23438-0.875-0.14844-0.25-0.35156-0.44141-0.60938-0.57812-0.25-0.14453-0.54297-0.21875-0.875-0.21875-0.79297 0-1.418 0.3125-1.875 0.9375-0.46094 0.61719-0.6875 1.4648-0.6875 2.5469v5.8906h-3.8125v-16.625h3.8125v6.4062c0.58203-0.69531 1.1953-1.207 1.8438-1.5312 0.64453-0.33203 1.3594-0.5 2.1406-0.5 1.3828 0 2.4297 0.42969 3.1406 1.2812 0.71875 0.84375 1.0781 2.0742 1.0781 3.6875z"
         id="path288" />
    </symbol>
    <symbol
       id="r"
       overflow="visible">
      <path
         d="m2.0156-15.953h4.5781l5.8125 10.938v-10.938h3.8906v15.953h-4.5938l-5.7969-10.938v10.938h-3.8906z"
         id="path291" />
    </symbol>
    <symbol
       id="q"
       overflow="visible">
      <path
         d="m1.7031-4.6562v-7.3125h3.8438v1.2031c0 0.64844-0.007813 1.4609-0.015625 2.4375v1.9688c0 0.96094 0.023438 1.6523 0.078125 2.0781 0.050781 0.41797 0.13281 0.72656 0.25 0.92188 0.15625 0.25 0.35938 0.44531 0.60938 0.57812 0.25781 0.13672 0.55078 0.20312 0.875 0.20312 0.80078 0 1.4258-0.30469 1.875-0.92188 0.45703-0.61328 0.6875-1.4688 0.6875-2.5625v-5.9062h3.8281v11.969h-3.8281v-1.7344c-0.57422 0.69922-1.1836 1.2148-1.8281 1.5469-0.64844 0.33203-1.3555 0.5-2.125 0.5-1.3867 0-2.4453-0.42188-3.1719-1.2656-0.71875-0.85156-1.0781-2.0859-1.0781-3.7031z"
         id="path294" />
    </symbol>
    <symbol
       id="p"
       overflow="visible">
      <path
         d="m13.859-7.2812v7.2812h-3.8438v-5.5781c0-1.0312-0.027344-1.7383-0.078125-2.125-0.042969-0.39453-0.12109-0.6875-0.23438-0.875-0.14844-0.25-0.35156-0.44141-0.60938-0.57812-0.25-0.14453-0.54297-0.21875-0.875-0.21875-0.79297 0-1.418 0.3125-1.875 0.9375-0.46094 0.61719-0.6875 1.4648-0.6875 2.5469v5.8906h-3.8125v-11.969h3.8125v1.75c0.58203-0.69531 1.1953-1.207 1.8438-1.5312 0.64453-0.33203 1.3594-0.5 2.1406-0.5 1.3828 0 2.4297 0.42969 3.1406 1.2812 0.71875 0.84375 1.0781 2.0742 1.0781 3.6875z"
         id="path297" />
    </symbol>
    <symbol
       id="o"
       overflow="visible">
      <path
         d="m1.8438-11.969h3.8125v11.75c0 1.6016-0.38672 2.8281-1.1562 3.6719-0.76172 0.84375-1.8711 1.2656-3.3281 1.2656h-1.8906v-2.5h0.65625c0.72656 0 1.2266-0.16797 1.5-0.5 0.26953-0.32422 0.40625-0.96875 0.40625-1.9375zm0-4.6562h3.8125v3.125h-3.8125z"
         id="path300" />
    </symbol>
    <symbol
       id="n"
       overflow="visible">
      <path
         d="m11.5-11.594v3.125c-0.52344-0.35156-1.043-0.61328-1.5625-0.78125-0.52344-0.17578-1.0625-0.26562-1.625-0.26562-1.0742 0-1.9062 0.3125-2.5 0.9375s-0.89062 1.4961-0.89062 2.6094c0 1.1172 0.29688 1.9844 0.89062 2.6094s1.4258 0.9375 2.5 0.9375c0.59375 0 1.1562-0.085937 1.6875-0.26562 0.53906-0.17578 1.0391-0.44141 1.5-0.79688v3.125c-0.59375 0.23047-1.1992 0.39453-1.8125 0.5-0.61719 0.11328-1.2344 0.17188-1.8594 0.17188-2.1562 0-3.8438-0.55078-5.0625-1.6562-1.2188-1.1133-1.8281-2.6562-1.8281-4.625s0.60938-3.5039 1.8281-4.6094c1.2188-1.1133 2.9062-1.6719 5.0625-1.6719 0.625 0 1.2383 0.058594 1.8438 0.17188 0.61328 0.10547 1.2227 0.26562 1.8281 0.48438z"
         id="path303" />
    </symbol>
  </defs>
  <g
     id="g740"
     transform="translate(1.5,81)">
    <path
       d="M 598.88,408.09 C 624.579,358.184 634.681,301.71 627.876,245.99 621.0674,190.271 597.669,137.88 560.712,95.63 523.755,53.376 474.95,23.212 420.632,9.052 c -54.316,-14.16 -111.64,-11.664 -164.52,7.1641 -52.883,18.828 -98.883,53.121 -132.02,98.422 -33.145,45.305 -51.906,99.527 -53.844,155.62 -0.24609,1.1055 -0.27344,2.2461 -0.08594,3.3633 -0.04687,2.125 -0.16016,4.2344 -0.16016,6.3711 -0.05469,63.613 21.684,125.33 61.586,174.87 l -55.312,16.348 c -2.2266,0.65625 -4.1016,2.1719 -5.2109,4.2109 -1.1094,2.0352 -1.3594,4.4336 -0.70312,6.6562 1.4219,4.5938 6.2422,7.2148 10.867,5.9141 l 168.86,-49.906 c 73.77,-21.582 94.777,-37.328 99.297,-49.895 9.4883,6.0156 11.262,11.203 11.367,14.027 1.1797,31.773 -124.77,85.074 -214.57,112.77 h -0.004 c -4.6172,1.4219 -7.207,6.3164 -5.7852,10.938 1.4727,4.5781 6.3281,7.1445 10.938,5.7812 38.262,-11.797 229.01,-73.512 226.91,-130.14 -0.57422,-15.496 -13.609,-27.961 -39.711,-37.789 v 0.004 c -3.918,-2.543 -8.082,-4.6992 -12.422,-6.4297 16.188,0.30078 28.648,0.80859 34.617,1.1602 34.691,2.0234 68.828,4.2812 101.89,15.664 25.25,8.6914 53.918,21.07 70.484,43.023 h 0.004 c 3.7773,4.8516 6.5586,10.406 8.1836,16.336 6.0273,23.469 -10.43,51.41 -48.906,83.055 v 0.004 c -3.7227,3.0703 -4.2539,8.5781 -1.1875,12.305 3.0664,3.7305 8.5703,4.2734 12.305,1.2109 44.199,-36.352 62.613,-70.316 54.734,-100.95 -4.3164,-16.77 -16.156,-30.445 -30.984,-41.465 36.098,13.098 61.477,30.055 74.52,50.367 13.254,20.641 14.281,44.586 3.1523,73.219 h 0.004 c -1.7539,4.5039 0.48047,9.5742 4.9844,11.328 4.5039,1.75 9.5742,-0.48438 11.328,-4.9883 13.117,-33.738 11.523,-63.691 -4.7422,-89.012 h -0.004 c -4.9492,-7.582 -10.871,-14.484 -17.609,-20.527 z m -13.875,-11.043 c -54.211,-37.902 -147.35,-51.566 -223.27,-56 -14.918,-0.86719 -69.527,-2.7422 -122.92,0 -2.5508,0.22656 -4.8828,1.543 -6.3984,3.6094 -1.5156,2.0664 -2.0664,4.6836 -1.5156,7.1875 0.75,3.2773 3.3359,5.8203 6.625,6.5117 l 65.672,13.305 c 9.6992,2.1367 19.254,4.8867 28.605,8.2383 0.52734,0.50391 0.91406,1.1445 1.1172,1.8477 -0.004,0.13672 -1.2031,14.23 -87.766,39.559 l -95.449,28.211 c -40.227,-47.312 -62.281,-107.41 -62.203,-169.52 0,-1.1758 0.07422,-2.3359 0.08984,-3.5078 l 40.73,-30.293 24.297,8.7422 c 1.9141,0.6875 4.0078,0.6875 5.9219,0 l 21.375,-7.6836 21.363,7.6836 c 1.9102,0.6875 4.0078,0.6875 5.9219,0 l 21.383,-7.6875 21.402,7.6875 h -0.004 c 1.9141,0.6875 4.0039,0.6875 5.9141,0 l 19.828,-7.1211 83.273,73.73 c 3.6211,3.1875 9.1367,2.8477 12.336,-0.76562 3.1992,-3.6094 2.8711,-9.125 -0.73047,-12.336 l -28.492,-25.227 42.184,-31.727 18.812,7.6875 h -0.004 c 2.1211,0.86719 4.5,0.86719 6.625,0 l 18.098,-7.3984 18.098,7.3984 c 2.1211,0.86719 4.4961,0.86719 6.6172,0 l 18.125,-7.3984 18.137,7.3984 c 2.1172,0.86328 4.4922,0.86328 6.6133,0 l 17.496,-7.1406 64.922,44.281 c 1.918,1.3125 4.2773,1.8086 6.5625,1.3789 2.2812,-0.42969 4.3008,-1.75 5.6094,-3.668 1.3086,-1.9219 1.8008,-4.2812 1.3672,-6.5625 -0.43359,-2.2852 -1.7578,-4.3008 -3.6758,-5.6055 l -137.93,-94.082 c -3.0977,-2.1094 -7.1953,-2.0156 -10.191,0.23828 l -110.84,83.359 -115.02,-101.84 c -3.1016,-2.7422 -7.6992,-2.9375 -11.02,-0.47266 l -113.880003,84.703 v 0.004 c 5.1562,-51.195 25.246003,-99.746 57.766003,-139.61 32.523,-39.871004 76.043,-69.309004 125.16,-84.648004 49.117,-15.339 101.65,-15.906 151.08,-1.6328 49.434,14.273 93.582,42.758 126.96,81.914004 33.375,39.16 54.512,87.262 60.773,138.33 6.2656,51.07 -2.6172,102.85 -25.543,148.92 z m -439.83,-163.38 62.262,-46.309 53.352,47.238 -7.8438,2.8164 -21.402,-7.6875 c -1.9141,-0.6875 -4.0078,-0.6875 -5.918,0 l -21.383,7.6875 -21.363,-7.6875 c -1.9141,-0.6875 -4.0078,-0.6875 -5.9219,0 l -21.375,7.6836 z m 255.41,5.5781 44.5,-33.469 50.492,34.441 -3.4648,1.4141 -18.137,-7.3984 h -0.004 c -2.1172,-0.86719 -4.4922,-0.86719 -6.6133,0 l -18.125,7.3984 -18.098,-7.3984 c -2.1211,-0.86719 -4.5,-0.86719 -6.6211,0 l -18.098,7.3984 z"
       id="path308" />
    <path
       d="m 391.78,372.56 c 1.0195,-4.7227 -1.9805,-9.3789 -6.7031,-10.402 -5.5,-1.1875 -9.1562,-1.6758 -9.3086,-1.6953 h -0.004 c -4.7773,-0.60938 -9.1484,2.7617 -9.7773,7.5391 -0.625,4.7734 2.7227,9.1602 7.4961,9.8086 0.0312,0.004 3.1562,0.42578 7.8906,1.4531 0.61328,0.13281 1.2344,0.19531 1.8594,0.19531 4.1172,-0.004 7.6719,-2.875 8.5469,-6.8984 z"
       id="path310" />
    <path
       d="m 436.59,426.64 c -2.0508,-1.0898 -4.4492,-1.3203 -6.668,-0.63672 -2.2188,0.68359 -4.0781,2.2188 -5.1602,4.2734 -2.8203,5.1484 -6.1523,10 -9.9453,14.48 -1.4844,1.7891 -2.1992,4.0898 -1.9844,6.4062 0.21484,2.3125 1.3438,4.4453 3.1328,5.9258 1.7891,1.4844 4.0938,2.1914 6.4062,1.9727 2.3124,-0.2187 4.4453,-1.3516 5.9219,-3.1445 4.5586,-5.3984 8.5547,-11.242 11.934,-17.449 2.2617,-4.2695 0.63281,-9.5625 -3.6367,-11.828 z"
       id="path312" />
    <path
       d="m 371.52,494.52 c 1.3867,1.8594 3.457,3.0938 5.7539,3.4297 2.2969,0.33594 4.6328,-0.25781 6.4922,-1.6445 5.5859,-4.1641 10.836,-8.2812 15.613,-12.227 3.6992,-3.0859 4.207,-8.5859 1.1328,-12.301 -3.0703,-3.7109 -8.5703,-4.2422 -12.293,-1.1836 -4.5469,3.7656 -9.5664,7.6953 -14.91,11.68 v 0.004 c -3.875,2.8867 -4.6758,8.3672 -1.7891,12.242 z"
       id="path314" />
    <path
       d="m 440.66,392.81 c -4.3789,-6.3672 -10.059,-11.73 -16.664,-15.742 -4.0781,-2.582 -9.4727,-1.375 -12.062,2.6992 -2.5898,4.0703 -1.3945,9.4688 2.6719,12.066 4.5078,2.6875 8.4023,6.293 11.426,10.582 2.6523,4.0391 8.0781,5.1641 12.117,2.5117 4.0391,-2.6523 5.1641,-8.0742 2.5117,-12.117 z"
       id="path316" />
    <path
       d="m 339.07,524.82 c 1.6445,0 3.25,-0.46484 4.6406,-1.3359 2.5469,-1.5977 5.0391,-3.1758 7.4727,-4.7383 4.0664,-2.6094 5.25,-8.0234 2.6406,-12.094 -2.6094,-4.0664 -8.0234,-5.25 -12.09,-2.6406 -2.3828,1.5352 -4.8242,3.082 -7.3203,4.6445 -3.3047,2.0742 -4.8398,6.0859 -3.7578,9.8359 1.0781,3.75 4.5117,6.332 8.4141,6.3281 z"
       id="path318" />
    <path
       d="m 424.26,61.051 c -7.3906,-4.6641 -15.852,-7.3672 -24.578,-7.8516 -5.2539,-0.06641 -10.41,1.4375 -14.809,4.3203 l -25.359,17.031 -38.605,-23.461 c -4.5781,-2.7812 -10.18,-3.3125 -15.199,-1.4453 -5.0195,1.8711 -8.9102,5.9375 -10.551,11.039 -1.6406,5.1016 -0.85547,10.672 2.1328,15.117 l 19.812,29.504 -10.445,8.1172 v -0.004 c -9.1055,-1.6953 -18.508,0.25 -26.191,5.418 -3.8516,2.5898 -6.5195,6.6016 -7.4141,11.156 -0.89453,4.5547 0.0547,9.2773 2.6445,13.129 l 24.445,36.398 v 0.004 c 2.5859,3.8516 6.6016,6.5195 11.152,7.4141 4.5547,0.89453 9.2812,-0.0586 13.133,-2.6445 7.6992,-5.1562 13.062,-13.129 14.934,-22.203 l 11.453,-6.5938 19.812,29.504 h 0.004 c 2.9844,4.4453 7.8438,7.2812 13.188,7.6914 5.3398,0.41016 10.578,-1.6484 14.207,-5.5898 3.6328,-3.9375 5.2578,-9.3242 4.4141,-14.613 l -7.1172,-44.613 25.363,-17.035 c 5.293,-3.5547 11.73,-10.901999 12.336,-25.710999 v 0.0039 c 0.15234,-4.043 -0.082,-8.0898 -0.70312,-12.086 -0.83203,-4.9727 -3.7695,-9.3438 -8.0586,-11.996 z m -8.7266,23.367 c 0.32031,4.4531 -1.3711,8.8164 -4.6055,11.895 l -34.648,23.27 8.875,55.66 -28.922,-43.059 -33.969,19.559 0.004,-0.004 c 0.63672,3.418 0.25781,6.9492 -1.0938,10.156 -1.3477,3.2031 -3.6094,5.9414 -6.5039,7.8711 l -24.445,-36.398 c 3.8945,-2.6289 8.6719,-3.6094 13.289,-2.7305 2.2344,0.41797 4.3672,1.2734 6.2695,2.5156 l 30.953,-24.047 -28.918,-43.058997 48.164,29.27 34.648,-23.27 c 1.5117,-0.94141 3.2695,-1.4141 5.0508,-1.3477 5.4531,0.56641 10.711,2.3555 15.375,5.2344 0.41797,2.8086 0.57812,5.6484 0.47656,8.4844 z"
       id="path320" />
  </g>
</svg>
